<svg xmlns="http://www.w3.org/2000/svg" xmlns:xlink="http://www.w3.org/1999/xlink" width="500" zoomAndPan="magnify" viewBox="0 0 375 374.999991" height="500" preserveAspectRatio="xMidYMid meet" version="1.0"><defs><g/><clipPath id="98d1ebb2b7"><path d="M 124 165 L 277 165 L 277 263 L 124 263 Z M 124 165 " clip-rule="nonzero"/></clipPath><clipPath id="098c9c30f2"><path d="M 124.070312 182.449219 L 267.050781 165.324219 L 276.59375 245.003906 L 133.617188 262.128906 Z M 124.070312 182.449219 " clip-rule="nonzero"/></clipPath><clipPath id="bb6d1e3611"><path d="M 124.070312 182.449219 L 267.050781 165.324219 L 276.59375 245.003906 L 133.617188 262.128906 Z M 124.070312 182.449219 " clip-rule="nonzero"/></clipPath><clipPath id="25e4deb54c"><path d="M 98.117188 113.035156 L 242.117188 113.035156 L 242.117188 193.285156 L 98.117188 193.285156 Z M 98.117188 113.035156 " clip-rule="nonzero"/></clipPath></defs><rect x="-37.5" width="450" fill="#ffffff" y="-37.499999" height="449.999989" fill-opacity="1"/><rect x="-37.5" width="450" fill="#ffffff" y="-37.499999" height="449.999989" fill-opacity="1"/><rect x="-37.5" width="450" fill="#ffffff" y="-37.499999" height="449.999989" fill-opacity="1"/><g clip-path="url(#98d1ebb2b7)"><g clip-path="url(#098c9c30f2)"><g clip-path="url(#bb6d1e3611)"><path fill="#1a222d" d="M 207.636719 172.441406 C 208.4375 179.132812 203.691406 185.199219 197.027344 185.996094 C 190.363281 186.792969 184.320312 182.023438 183.515625 175.328125 L 124.09375 182.449219 L 133.636719 262.128906 L 193.046875 255.011719 C 192.246094 248.316406 196.992188 242.253906 203.65625 241.457031 C 210.320312 240.65625 216.363281 245.429688 217.164062 252.121094 L 276.574219 245.003906 L 267.027344 165.324219 Z M 207.636719 172.441406 " fill-opacity="1" fill-rule="nonzero"/></g></g></g><g clip-path="url(#25e4deb54c)"><path fill="#71c6dd" d="M 182.277344 113.035156 C 182.277344 119.773438 176.84375 125.230469 170.132812 125.230469 C 163.417969 125.230469 157.984375 119.773438 157.984375 113.035156 L 98.136719 113.035156 L 98.136719 193.285156 L 157.96875 193.285156 C 157.96875 186.542969 163.402344 181.085938 170.117188 181.085938 C 176.828125 181.085938 182.261719 186.542969 182.261719 193.285156 L 242.09375 193.285156 L 242.09375 113.035156 Z M 182.277344 113.035156 " fill-opacity="1" fill-rule="nonzero"/></g><g fill="#ffffff" fill-opacity="1"><g transform="translate(136.052425, 233.051433)"><g><path d="M 5.515625 -0.65625 L 2.859375 -0.34375 L 0.203125 -22.53125 L 8.28125 -23.5 C 10.332031 -23.738281 11.960938 -23.359375 13.171875 -22.359375 C 14.390625 -21.359375 15.117188 -19.859375 15.359375 -17.859375 C 15.578125 -16.054688 15.28125 -14.554688 14.46875 -13.359375 C 13.664062 -12.171875 12.390625 -11.382812 10.640625 -11 L 17.4375 -2.09375 L 14.453125 -1.734375 L 7.921875 -10.546875 L 4.375 -10.125 Z M 9.453125 -13.03125 C 10.578125 -13.164062 11.414062 -13.550781 11.96875 -14.1875 C 12.53125 -14.820312 12.75 -15.660156 12.625 -16.703125 L 12.4375 -18.34375 C 12.3125 -19.382812 11.898438 -20.144531 11.203125 -20.625 C 10.515625 -21.113281 9.609375 -21.289062 8.484375 -21.15625 L 3.140625 -20.515625 L 4.109375 -12.390625 Z M 9.453125 -13.03125 "/></g></g></g><g fill="#ffffff" fill-opacity="1"><g transform="translate(155.111434, 230.768266)"><g><path d="M 2.859375 -0.34375 L 0.203125 -22.53125 L 13.859375 -24.171875 L 14.140625 -21.84375 L 3.140625 -20.515625 L 4.03125 -13.046875 L 14.65625 -14.328125 L 14.9375 -12 L 4.3125 -10.71875 L 5.234375 -2.984375 L 16.234375 -4.3125 L 16.515625 -1.984375 Z M 2.859375 -0.34375 "/></g></g></g><g fill="#ffffff" fill-opacity="1"><g transform="translate(174.170444, 228.4851)"><g><path d="M 10.3125 -0.84375 C 7.59375 -0.507812 5.453125 -1.25 3.890625 -3.0625 C 2.335938 -4.875 1.335938 -7.640625 0.890625 -11.359375 C 0.441406 -15.054688 0.757812 -17.96875 1.84375 -20.09375 C 2.9375 -22.226562 4.84375 -23.460938 7.5625 -23.796875 C 8.582031 -23.910156 9.476562 -23.875 10.25 -23.6875 C 11.019531 -23.5 11.695312 -23.207031 12.28125 -22.8125 C 12.875 -22.414062 13.382812 -21.941406 13.8125 -21.390625 C 14.238281 -20.847656 14.625 -20.300781 14.96875 -19.75 L 12.796875 -18.40625 C 12.554688 -18.875 12.285156 -19.3125 11.984375 -19.71875 C 11.679688 -20.125 11.332031 -20.46875 10.9375 -20.75 C 10.539062 -21.039062 10.09375 -21.253906 9.59375 -21.390625 C 9.101562 -21.523438 8.519531 -21.554688 7.84375 -21.484375 C 6.09375 -21.273438 4.863281 -20.453125 4.15625 -19.015625 C 3.457031 -17.578125 3.242188 -15.738281 3.515625 -13.5 L 3.953125 -9.890625 C 4.210938 -7.660156 4.851562 -5.929688 5.875 -4.703125 C 6.894531 -3.472656 8.28125 -2.960938 10.03125 -3.171875 C 10.707031 -3.242188 11.269531 -3.40625 11.71875 -3.65625 C 12.175781 -3.90625 12.5625 -4.210938 12.875 -4.578125 C 13.1875 -4.953125 13.441406 -5.367188 13.640625 -5.828125 C 13.835938 -6.296875 14.003906 -6.78125 14.140625 -7.28125 L 16.5625 -6.53125 C 16.351562 -5.875 16.101562 -5.238281 15.8125 -4.625 C 15.53125 -4.019531 15.148438 -3.453125 14.671875 -2.921875 C 14.203125 -2.390625 13.613281 -1.9375 12.90625 -1.5625 C 12.195312 -1.195312 11.332031 -0.957031 10.3125 -0.84375 Z M 10.3125 -0.84375 "/></g></g></g><g fill="#ffffff" fill-opacity="1"><g transform="translate(193.229453, 226.201933)"><g><path d="M 2.671875 -0.3125 L 2.421875 -2.4375 L 7.9375 -3.109375 L 5.78125 -21.03125 L 0.265625 -20.359375 L 0.015625 -22.5 L 13.734375 -24.15625 L 13.984375 -22.015625 L 8.453125 -21.34375 L 10.609375 -3.421875 L 16.140625 -4.09375 L 16.390625 -1.96875 Z M 2.671875 -0.3125 "/></g></g></g><g fill="#ffffff" fill-opacity="1"><g transform="translate(212.288462, 223.918766)"><g><path d="M 2.859375 -0.34375 L 0.203125 -22.53125 L 8.28125 -23.5 C 10.332031 -23.738281 11.960938 -23.359375 13.171875 -22.359375 C 14.390625 -21.359375 15.117188 -19.859375 15.359375 -17.859375 C 15.597656 -15.835938 15.242188 -14.203125 14.296875 -12.953125 C 13.359375 -11.703125 11.863281 -10.957031 9.8125 -10.71875 L 4.390625 -10.0625 L 5.515625 -0.65625 Z M 4.109375 -12.390625 L 9.453125 -13.03125 C 10.578125 -13.164062 11.414062 -13.550781 11.96875 -14.1875 C 12.53125 -14.820312 12.75 -15.660156 12.625 -16.703125 L 12.4375 -18.34375 C 12.3125 -19.382812 11.898438 -20.144531 11.203125 -20.625 C 10.515625 -21.113281 9.609375 -21.289062 8.484375 -21.15625 L 3.140625 -20.515625 Z M 4.109375 -12.390625 "/></g></g></g><g fill="#ffffff" fill-opacity="1"><g transform="translate(231.347472, 221.6356)"><g><path d="M 2.859375 -0.34375 L 0.203125 -22.53125 L 13.859375 -24.171875 L 14.140625 -21.84375 L 3.140625 -20.515625 L 4.03125 -13.046875 L 14.65625 -14.328125 L 14.9375 -12 L 4.3125 -10.71875 L 5.234375 -2.984375 L 16.234375 -4.3125 L 16.515625 -1.984375 Z M 2.859375 -0.34375 "/></g></g></g><g fill="#ffffff" fill-opacity="1"><g transform="translate(250.406481, 219.352433)"><g><path d="M 9.515625 -0.75 C 7.523438 -0.507812 5.847656 -0.675781 4.484375 -1.25 C 3.128906 -1.832031 1.96875 -2.644531 1 -3.6875 L 2.75 -5.53125 C 3.75 -4.539062 4.757812 -3.835938 5.78125 -3.421875 C 6.8125 -3.015625 7.992188 -2.890625 9.328125 -3.046875 C 10.941406 -3.242188 12.125 -3.757812 12.875 -4.59375 C 13.632812 -5.4375 13.9375 -6.523438 13.78125 -7.859375 C 13.65625 -8.941406 13.25 -9.75 12.5625 -10.28125 C 11.875 -10.8125 10.753906 -11.113281 9.203125 -11.1875 L 6.671875 -11.3125 C 5.566406 -11.363281 4.625 -11.535156 3.84375 -11.828125 C 3.070312 -12.128906 2.429688 -12.519531 1.921875 -13 C 1.410156 -13.488281 1.019531 -14.046875 0.75 -14.671875 C 0.476562 -15.296875 0.300781 -15.957031 0.21875 -16.65625 C -0.0195312 -18.6875 0.460938 -20.300781 1.671875 -21.5 C 2.878906 -22.695312 4.617188 -23.4375 6.890625 -23.71875 C 8.671875 -23.925781 10.207031 -23.800781 11.5 -23.34375 C 12.789062 -22.894531 13.867188 -22.179688 14.734375 -21.203125 L 13.0625 -19.34375 C 12.34375 -20.070312 11.519531 -20.640625 10.59375 -21.046875 C 9.675781 -21.460938 8.523438 -21.585938 7.140625 -21.421875 C 5.640625 -21.242188 4.519531 -20.785156 3.78125 -20.046875 C 3.050781 -19.316406 2.765625 -18.3125 2.921875 -17.03125 C 3.035156 -16.039062 3.429688 -15.269531 4.109375 -14.71875 C 4.796875 -14.164062 5.941406 -13.84375 7.546875 -13.75 L 9.96875 -13.640625 C 11.070312 -13.578125 12.015625 -13.394531 12.796875 -13.09375 C 13.585938 -12.800781 14.238281 -12.421875 14.75 -11.953125 C 15.269531 -11.484375 15.664062 -10.929688 15.9375 -10.296875 C 16.207031 -9.660156 16.390625 -8.976562 16.484375 -8.25 C 16.722656 -6.207031 16.238281 -4.519531 15.03125 -3.1875 C 13.832031 -1.851562 11.992188 -1.039062 9.515625 -0.75 Z M 9.515625 -0.75 "/></g></g></g><g fill="#000000" fill-opacity="1"><g transform="translate(131.68843, 164.700707)"><g><path d="M 2.875 0 L 2.875 -22.34375 L 16.953125 -22.34375 L 16.953125 -20 L 5.5625 -20 L 5.5625 -12.484375 L 16 -12.484375 L 16 -10.140625 L 5.5625 -10.140625 L 5.5625 0 Z M 2.875 0 "/></g></g></g><g fill="#000000" fill-opacity="1"><g transform="translate(150.883707, 164.700707)"><g><path d="M 9.59375 0.390625 C 8.226562 0.390625 7.054688 0.128906 6.078125 -0.390625 C 5.097656 -0.921875 4.285156 -1.675781 3.640625 -2.65625 C 3.003906 -3.632812 2.535156 -4.835938 2.234375 -6.265625 C 1.941406 -7.703125 1.796875 -9.335938 1.796875 -11.171875 C 1.796875 -12.984375 1.941406 -14.609375 2.234375 -16.046875 C 2.535156 -17.484375 3.003906 -18.691406 3.640625 -19.671875 C 4.285156 -20.660156 5.097656 -21.414062 6.078125 -21.9375 C 7.054688 -22.457031 8.226562 -22.71875 9.59375 -22.71875 C 10.957031 -22.71875 12.128906 -22.457031 13.109375 -21.9375 C 14.097656 -21.414062 14.910156 -20.660156 15.546875 -19.671875 C 16.191406 -18.691406 16.660156 -17.484375 16.953125 -16.046875 C 17.253906 -14.609375 17.40625 -12.984375 17.40625 -11.171875 C 17.40625 -9.335938 17.253906 -7.703125 16.953125 -6.265625 C 16.660156 -4.835938 16.191406 -3.632812 15.546875 -2.65625 C 14.910156 -1.675781 14.097656 -0.921875 13.109375 -0.390625 C 12.128906 0.128906 10.957031 0.390625 9.59375 0.390625 Z M 9.59375 -1.953125 C 10.488281 -1.953125 11.242188 -2.128906 11.859375 -2.484375 C 12.484375 -2.835938 13 -3.332031 13.40625 -3.96875 C 13.8125 -4.601562 14.101562 -5.375 14.28125 -6.28125 C 14.46875 -7.1875 14.5625 -8.207031 14.5625 -9.34375 L 14.5625 -12.984375 C 14.5625 -14.097656 14.46875 -15.113281 14.28125 -16.03125 C 14.101562 -16.945312 13.8125 -17.722656 13.40625 -18.359375 C 13 -19.003906 12.484375 -19.503906 11.859375 -19.859375 C 11.242188 -20.210938 10.488281 -20.390625 9.59375 -20.390625 C 8.695312 -20.390625 7.941406 -20.210938 7.328125 -19.859375 C 6.710938 -19.503906 6.203125 -19.003906 5.796875 -18.359375 C 5.390625 -17.722656 5.09375 -16.945312 4.90625 -16.03125 C 4.726562 -15.113281 4.640625 -14.097656 4.640625 -12.984375 L 4.640625 -9.34375 C 4.640625 -8.207031 4.726562 -7.1875 4.90625 -6.28125 C 5.09375 -5.375 5.390625 -4.601562 5.796875 -3.96875 C 6.203125 -3.332031 6.710938 -2.835938 7.328125 -2.484375 C 7.941406 -2.128906 8.695312 -1.953125 9.59375 -1.953125 Z M 9.59375 -1.953125 "/></g></g></g><g fill="#000000" fill-opacity="1"><g transform="translate(170.078983, 164.700707)"><g><path d="M 9.59375 0.390625 C 8.226562 0.390625 7.054688 0.128906 6.078125 -0.390625 C 5.097656 -0.921875 4.285156 -1.675781 3.640625 -2.65625 C 3.003906 -3.632812 2.535156 -4.835938 2.234375 -6.265625 C 1.941406 -7.703125 1.796875 -9.335938 1.796875 -11.171875 C 1.796875 -12.984375 1.941406 -14.609375 2.234375 -16.046875 C 2.535156 -17.484375 3.003906 -18.691406 3.640625 -19.671875 C 4.285156 -20.660156 5.097656 -21.414062 6.078125 -21.9375 C 7.054688 -22.457031 8.226562 -22.71875 9.59375 -22.71875 C 10.957031 -22.71875 12.128906 -22.457031 13.109375 -21.9375 C 14.097656 -21.414062 14.910156 -20.660156 15.546875 -19.671875 C 16.191406 -18.691406 16.660156 -17.484375 16.953125 -16.046875 C 17.253906 -14.609375 17.40625 -12.984375 17.40625 -11.171875 C 17.40625 -9.335938 17.253906 -7.703125 16.953125 -6.265625 C 16.660156 -4.835938 16.191406 -3.632812 15.546875 -2.65625 C 14.910156 -1.675781 14.097656 -0.921875 13.109375 -0.390625 C 12.128906 0.128906 10.957031 0.390625 9.59375 0.390625 Z M 9.59375 -1.953125 C 10.488281 -1.953125 11.242188 -2.128906 11.859375 -2.484375 C 12.484375 -2.835938 13 -3.332031 13.40625 -3.96875 C 13.8125 -4.601562 14.101562 -5.375 14.28125 -6.28125 C 14.46875 -7.1875 14.5625 -8.207031 14.5625 -9.34375 L 14.5625 -12.984375 C 14.5625 -14.097656 14.46875 -15.113281 14.28125 -16.03125 C 14.101562 -16.945312 13.8125 -17.722656 13.40625 -18.359375 C 13 -19.003906 12.484375 -19.503906 11.859375 -19.859375 C 11.242188 -20.210938 10.488281 -20.390625 9.59375 -20.390625 C 8.695312 -20.390625 7.941406 -20.210938 7.328125 -19.859375 C 6.710938 -19.503906 6.203125 -19.003906 5.796875 -18.359375 C 5.390625 -17.722656 5.09375 -16.945312 4.90625 -16.03125 C 4.726562 -15.113281 4.640625 -14.097656 4.640625 -12.984375 L 4.640625 -9.34375 C 4.640625 -8.207031 4.726562 -7.1875 4.90625 -6.28125 C 5.09375 -5.375 5.390625 -4.601562 5.796875 -3.96875 C 6.203125 -3.332031 6.710938 -2.835938 7.328125 -2.484375 C 7.941406 -2.128906 8.695312 -1.953125 9.59375 -1.953125 Z M 9.59375 -1.953125 "/></g></g></g><g fill="#000000" fill-opacity="1"><g transform="translate(189.27426, 164.700707)"><g><path d="M 3.046875 -22.34375 L 9.28125 -22.34375 C 12.007812 -22.34375 14.046875 -21.398438 15.390625 -19.515625 C 16.734375 -17.640625 17.40625 -14.859375 17.40625 -11.171875 C 17.40625 -7.472656 16.734375 -4.6875 15.390625 -2.8125 C 14.046875 -0.9375 12.007812 0 9.28125 0 L 3.046875 0 Z M 9.15625 -2.34375 C 10.945312 -2.34375 12.296875 -2.957031 13.203125 -4.1875 C 14.109375 -5.425781 14.5625 -7.175781 14.5625 -9.4375 L 14.5625 -12.890625 C 14.5625 -15.148438 14.109375 -16.898438 13.203125 -18.140625 C 12.296875 -19.378906 10.945312 -20 9.15625 -20 L 5.734375 -20 L 5.734375 -2.34375 Z M 9.15625 -2.34375 "/></g></g></g></svg>